<svg width="48" height="48" viewBox="0 0 48 48" fill="none" xmlns="http://www.w3.org/2000/svg">
<path d="M8.77366 34.695H7.98366L7.16366 34.755C7.00996 34.7756 6.86105 34.823 6.72366 34.895C6.58832 34.9709 6.46664 35.0689 6.36366 35.185C6.26036 35.3124 6.1823 35.4583 6.13366 35.615C6.08217 35.756 6.05511 35.9048 6.05366 36.055V42.615C6.05207 42.745 6.07585 42.8741 6.12366 42.995C6.17706 43.114 6.2516 43.2225 6.34366 43.315C6.43578 43.4145 6.54836 43.493 6.67366 43.545C6.79377 43.5955 6.92342 43.6194 7.05366 43.615C7.1913 43.6186 7.328 43.5912 7.45366 43.535C7.57725 43.4844 7.68946 43.4096 7.78366 43.315C7.89444 43.2198 7.98607 43.1044 8.05366 42.975C8.07791 42.8562 8.07791 42.7337 8.05366 42.615V40.615C8.67624 40.6599 9.30203 40.6195 9.91366 40.495C10.4122 40.401 10.8796 40.1845 11.2737 39.865C11.5943 39.5978 11.842 39.2538 11.9937 38.865C12.1608 38.4688 12.2523 38.0448 12.2637 37.615C12.2805 37.1883 12.209 36.7627 12.0537 36.365C11.8914 36.0019 11.6445 35.683 11.3337 35.435C11.0164 35.1776 10.6484 34.9902 10.2537 34.885C9.7716 34.7529 9.27344 34.689 8.77366 34.695ZM8.05366 36.615C8.41279 36.5795 8.77454 36.5795 9.13366 36.615C9.40582 36.6314 9.66845 36.7213 9.89366 36.875C9.98546 36.9415 10.0579 37.0312 10.1037 37.135C10.1773 37.3051 10.2115 37.4897 10.2037 37.675C10.2138 37.8646 10.176 38.0538 10.0937 38.225C10.045 38.3325 9.96919 38.4256 9.87366 38.495C9.72765 38.6063 9.56116 38.6879 9.38366 38.735C9.15402 38.7865 8.91897 38.81 8.68366 38.805H8.38366H8.08366V36.615H8.05366Z" fill="#1F1F1F"/>
<path d="M16.8437 34.6951C16.2853 34.6906 15.7314 34.7959 15.2137 35.0051C14.7314 35.2154 14.3037 35.5336 13.9637 35.9351C13.6163 36.3533 13.3546 36.8358 13.1937 37.3551C13.0172 37.959 12.9329 38.586 12.9437 39.2151C12.9328 39.8409 13.0171 40.4646 13.1937 41.0651C13.3546 41.5844 13.6163 42.0669 13.9637 42.4851C14.3076 42.8868 14.7385 43.2049 15.2237 43.4151C16.2675 43.8288 17.4298 43.8288 18.4737 43.4151C18.956 43.2048 19.3836 42.8866 19.7237 42.4851C20.0784 42.0719 20.3409 41.5878 20.4937 41.0651C20.8402 39.8527 20.8402 38.5675 20.4937 37.3551C20.3409 36.8324 20.0784 36.3483 19.7237 35.9351C19.3856 35.5314 18.9575 35.2129 18.4737 35.0051C17.9564 34.7941 17.4022 34.6887 16.8437 34.6951ZM18.1937 41.2451C18.045 41.4346 17.853 41.5855 17.6337 41.6851C17.127 41.8718 16.5703 41.8718 16.0637 41.6851C15.8424 41.5888 15.6496 41.4373 15.5037 41.2451C15.3183 40.9955 15.1887 40.7091 15.1237 40.4051C14.9504 39.6178 14.9504 38.8023 15.1237 38.0151C15.1887 37.7111 15.3183 37.4246 15.5037 37.1751C15.6523 36.9856 15.8444 36.8347 16.0637 36.7351C16.5703 36.5484 17.127 36.5484 17.6337 36.7351C17.853 36.8347 18.045 36.9856 18.1937 37.1751C18.375 37.427 18.5042 37.7126 18.5737 38.0151C18.7469 38.8023 18.7469 39.6178 18.5737 40.4051C18.5042 40.7076 18.375 40.9932 18.1937 41.2451Z" fill="#1F1F1F"/>
<path d="M24.8937 39.065L26.2437 37.615L27.6037 36.185C27.7238 36.0695 27.8043 35.919 27.8337 35.755C27.8618 35.5967 27.8444 35.4338 27.7837 35.285C27.7203 35.1387 27.6162 35.0137 27.4837 34.925C27.3472 34.8358 27.1867 34.7904 27.0237 34.795C26.7834 34.795 26.5455 34.8426 26.3237 34.935C26.1045 35.0308 25.9071 35.1703 25.7437 35.345L24.8337 36.345L23.9237 37.345V35.815C23.9207 35.6854 23.897 35.5571 23.8537 35.435C23.8003 35.3159 23.7257 35.2075 23.6337 35.115C23.5396 35.0163 23.4263 34.9378 23.3007 34.8845C23.1752 34.8312 23.0401 34.8041 22.9037 34.805C22.7673 34.8041 22.6322 34.8312 22.5066 34.8845C22.3811 34.9378 22.2678 35.0163 22.1737 35.115C21.9889 35.3013 21.8848 35.5527 21.8837 35.815V42.615C21.8852 42.7457 21.9124 42.8748 21.9637 42.995C22.017 43.1117 22.0878 43.2196 22.1737 43.315C22.2678 43.4137 22.3811 43.4921 22.5066 43.5455C22.6322 43.5988 22.7673 43.6258 22.9037 43.625C23.0393 43.6271 23.174 43.6016 23.2995 43.5501C23.425 43.4985 23.5387 43.4219 23.6337 43.325C23.7283 43.2308 23.8031 43.1186 23.8537 42.995C23.8979 42.8765 23.9216 42.7514 23.9237 42.625V40.865L24.9237 41.945L25.9237 43.035C26.0781 43.2202 26.2732 43.3673 26.4937 43.465C26.72 43.5663 26.9657 43.6175 27.2137 43.615C27.3702 43.618 27.5239 43.5726 27.6537 43.485C27.7862 43.4007 27.8907 43.2789 27.9537 43.135C28.0207 42.988 28.0449 42.8251 28.0237 42.665C28.0013 42.5079 27.9315 42.3614 27.8237 42.245L26.3137 40.615L24.8937 39.065Z" fill="#1F1F1F"/>
<path d="M33.6037 36.705C33.7313 36.7046 33.8574 36.6773 33.9737 36.625C34.0956 36.5767 34.205 36.5015 34.2937 36.405C34.4618 36.2257 34.5579 35.9907 34.5637 35.745C34.5598 35.6221 34.5362 35.5005 34.4937 35.385C34.4428 35.273 34.3716 35.1713 34.2837 35.085C34.1973 34.9929 34.0914 34.9211 33.9737 34.875C33.8564 34.827 33.7305 34.8032 33.6037 34.805H30.1037C29.9473 34.8032 29.7921 34.8332 29.6476 34.8934C29.5032 34.9536 29.3726 35.0426 29.2637 35.155C29.1496 35.2666 29.058 35.399 28.9937 35.545C28.9333 35.6873 28.9026 35.8405 28.9037 35.995V42.425C28.9026 42.5796 28.9333 42.7328 28.9937 42.875C29.054 43.0208 29.1425 43.1532 29.254 43.2647C29.3655 43.3763 29.498 43.4647 29.6437 43.525C29.7895 43.5855 29.9459 43.6161 30.1037 43.615H33.6037C33.7305 43.6169 33.8564 43.5931 33.9737 43.545C34.0887 43.494 34.1937 43.4229 34.2837 43.335C34.3716 43.2488 34.4428 43.1471 34.4937 43.035C34.5362 42.9195 34.5598 42.798 34.5637 42.675C34.5616 42.5551 34.5378 42.4366 34.4937 42.325C34.4427 42.2101 34.3716 42.1051 34.2837 42.015C34.1985 41.919 34.0925 41.8437 33.9737 41.795C33.8574 41.7427 33.7313 41.7155 33.6037 41.715H30.9437V39.855H33.4137C33.5444 39.8535 33.6735 39.8263 33.7937 39.775C33.8881 39.7353 33.9757 39.6814 34.0537 39.615C34.2159 39.4368 34.3082 39.2059 34.3137 38.965C34.3166 38.8478 34.2926 38.7316 34.2437 38.625C34.1999 38.511 34.1355 38.4059 34.0537 38.315C33.9645 38.2261 33.8593 38.1549 33.7437 38.105C33.6253 38.0608 33.5001 38.0371 33.3737 38.035H30.9437V36.705H33.6037Z" fill="#1F1F1F"/>
<path d="M41.8336 42.3951L41.4536 41.4751L41.0536 40.6151C40.9736 40.4251 40.8936 40.2651 40.8136 40.1051C40.7336 39.9451 40.6636 39.8151 40.5836 39.6951C40.7117 39.6165 40.8323 39.5261 40.9436 39.4251C41.0593 39.3311 41.1633 39.2237 41.2536 39.1051C41.4381 38.8753 41.5803 38.6146 41.6736 38.3351C41.7678 38.0376 41.8151 37.7272 41.8136 37.4151C41.8187 37.0166 41.7296 36.6226 41.5536 36.2651C41.3819 35.9189 41.1278 35.6201 40.8136 35.3951C40.4852 35.163 40.1151 34.9967 39.7236 34.9051C39.2415 34.7948 38.7482 34.7411 38.2536 34.7451H37.5036L36.8136 34.8051C36.6599 34.8257 36.511 34.8731 36.3736 34.9451C36.2383 35.021 36.1166 35.119 36.0136 35.2351C35.9146 35.3505 35.8367 35.4825 35.7836 35.6251C35.7321 35.7696 35.7051 35.9217 35.7036 36.0751V42.6151C35.7066 42.7447 35.7302 42.8729 35.7736 42.9951C35.827 43.1142 35.9015 43.2226 35.9936 43.3151C36.0877 43.4138 36.201 43.4922 36.3266 43.5455C36.4521 43.5989 36.5872 43.6259 36.7236 43.6251C36.8593 43.6272 36.994 43.6017 37.1195 43.5501C37.245 43.4986 37.3587 43.422 37.4536 43.3251C37.5486 43.2331 37.6206 43.1201 37.6636 42.9951C37.7159 42.8787 37.7432 42.7527 37.7436 42.6251V40.3251H38.0536C38.2532 40.3079 38.454 40.3079 38.6536 40.3251C38.7067 40.3185 38.7605 40.3185 38.8136 40.3251C38.8528 40.3598 38.8865 40.4003 38.9136 40.4451C39.0141 40.6197 39.1042 40.8 39.1836 40.9851L39.5436 41.8851L39.9136 42.7751C39.9514 42.8898 40.0127 42.9954 40.0936 43.0851C40.1676 43.1806 40.2552 43.2649 40.3536 43.3351C40.4548 43.4074 40.566 43.4646 40.6836 43.5051C40.802 43.5567 40.9262 43.5937 41.0536 43.6151C41.1998 43.6176 41.3442 43.5832 41.4736 43.5151C41.5984 43.4405 41.7072 43.3419 41.7936 43.2251C41.8771 43.1053 41.9284 42.9659 41.9424 42.8206C41.9564 42.6752 41.9327 42.5286 41.8736 42.3951H41.8336ZM37.7736 36.6151H38.2136C38.7046 36.5569 39.2003 36.6737 39.6136 36.9451C39.6842 37.013 39.7388 37.0959 39.7734 37.1875C39.808 37.2792 39.8217 37.3774 39.8136 37.4751C39.819 37.6375 39.7847 37.7989 39.7136 37.9451C39.6562 38.0355 39.5814 38.1137 39.4936 38.1751C39.3437 38.2708 39.1777 38.3386 39.0036 38.3751C38.6755 38.4487 38.3398 38.4823 38.0036 38.4751H37.7736V36.6151Z" fill="#1F1F1F"/>
<path d="M21.1384 4.82333L9.35346 8.48265C8.37769 8.78563 7.83229 9.82227 8.13527 10.798L13.6005 28.3991C13.9035 29.3748 14.9402 29.9202 15.9159 29.6172L27.7009 25.9579C28.6766 25.6549 29.222 24.6183 28.9191 23.6425L23.4538 6.04151C23.1508 5.06574 22.1142 4.52034 21.1384 4.82333Z" stroke="#1F1F1F" stroke-width="2.25" stroke-linecap="round" stroke-linejoin="round"/>
<path d="M19.4037 28.525L31.8237 27.725C32.2986 27.6916 32.7413 27.4724 33.0558 27.1149C33.3702 26.7574 33.5312 26.2903 33.5037 25.815L32.3137 7.31501C32.3023 7.07716 32.2435 6.84398 32.1409 6.62913C32.0382 6.41428 31.8937 6.22206 31.7158 6.06375C31.538 5.90544 31.3303 5.7842 31.105 5.70715C30.8797 5.63009 30.6413 5.59877 30.4037 5.61501L23.4637 6.06501" stroke="#1F1F1F" stroke-width="2.25" stroke-linecap="round" stroke-linejoin="round"/>
<path d="M32.3637 8.18506L38.3637 9.00506C38.8307 9.06974 39.2534 9.31606 39.5398 9.69054C39.8263 10.065 39.9535 10.5374 39.8937 11.0051L37.3637 29.3851C37.2989 29.8528 37.053 30.2763 36.6789 30.5644C36.3047 30.8525 35.8324 30.982 35.3637 30.9251L23.0537 29.2251C22.7897 29.1901 22.5372 29.0954 22.3154 28.9481C22.0936 28.8008 21.9083 28.6048 21.7737 28.3751" stroke="#1F1F1F" stroke-width="2.25" stroke-linecap="round" stroke-linejoin="round"/>
<path d="M21.6423 16.2571L17.5625 14.1106L15.416 18.1904L19.4958 20.3369L21.6423 16.2571Z" stroke="#1F1F1F" stroke-width="2.25" stroke-linecap="round" stroke-linejoin="round"/>
</svg>
